ply
format ascii 1.0
element vertex 19
property float x
property float y
property float z
property uchar red
property uchar green
property uchar blue
end_header
-0.7958207130432129 -0.38040876388549805 5.534495830535889 178 148 127
-0.7697687745094299 -0.2041257619857788 5.496281147003174 51 36 29
-0.8108925819396973 -0.3805015981197357 5.545689582824707 170 139 118
-0.7697687745094299 -0.2041257619857788 5.496281147003174 51 36 29
-0.7172514200210571 -0.7335203886032104 5.644504547119141 200 172 150
-0.7799796462059021 -0.21043485403060913 5.499154567718506 80 63 54
-1.0200095176696777 -0.17081747949123383 5.430561542510986 66 39 27
-0.8238939046859741 -0.23864459991455078 5.491913795471191 177 149 127
-1.0106431245803833 -0.13790851831436157 5.425725936889648 75 55 45
-0.9637501835823059 0.06145439296960831 5.380911350250244 114 81 66
-0.7233667969703674 -0.7069453001022339 5.632695198059082 133 105 93
-0.5256761312484741 -0.6622858643531799 5.660566806793213 197 170 151
-0.7460403442382812 -0.9220120310783386 5.686479568481445 116 92 77
-0.5869638323783875 -0.5812527537345886 5.648316383361816 183 162 144
-0.5598335266113281 -0.644123911857605 5.665689468383789 153 125 111
-0.8680912256240845 -0.37632259726524353 5.533232688903809 134 107 90
-0.8131769299507141 -0.7678952813148499 5.631068229675293 204 176 155
-0.8815799951553345 -0.2793847322463989 5.488979339599609 123 99 87
-0.7333433032035828 -0.22936119139194489 5.512876033782959 168 140 119
